<?xml version="1.0" ?><!DOCTYPE svg  PUBLIC '-//W3C//DTD SVG 1.0//EN'  'http://www.w3.org/TR/2001/REC-SVG-20010904/DTD/svg10.dtd'><svg xmlns="http://www.w3.org/2000/svg" xmlns:xlink="http://www.w3.org/1999/xlink" version="1.0" id="Layer_1" width="100px" height="100px" viewBox="0 0 100 100" enable-background="new 0 0 100 100" xml:space="preserve"><path d="M56.667,70c-14.386,0-26.658-6.24-33.215-15.684c-0.056,0.779-0.119,1.557-0.119,2.352C23.333,75.078,38.258,90,56.667,90  c18.41,0,33.332-14.922,33.332-33.332c0-0.795-0.064-1.572-0.117-2.354C83.327,63.76,71.052,70,56.667,70z"/><path d="M23.199,38.024c-0.952-2.415-1.533-5.107-1.533-8.024c0-5.156,1.426-10.159,3.987-14.648  c-3.321-2.356-7.061-4.176-11.082-5.352c-5.027,9.189-6.168,19.941-2.111,29.736c1.53,3.695,3.998,6.589,6.832,8.525  C20.108,44.629,21.431,41.188,23.199,38.024z"/><path d="M44.601,20.31c-1.73-3.975-4.449-7.507-7.935-10.31c-6.123,4.926-10,12.048-10,20c0,0.893,0.071,1.765,0.197,2.611  C31.431,26.963,37.566,22.65,44.601,20.31z"/><path d="M19.687,66.611c-0.848,0.586-1.674,1.234-2.444,2.006c-5.625,5.621-7.92,13.398-7.07,21.211  c7.16,0.777,14.268-1.117,19.736-5.766C25.066,79.336,21.497,73.334,19.687,66.611z"/><path d="M74.817,28.73c1.176,1.908,1.85,4.03,1.85,6.27c0,8.288-8.953,15-20,15c-11.046,0-20.001-6.712-20.001-15  c0-2.239,0.674-4.361,1.849-6.27c-6.357,4.145-11.222,10.385-13.585,17.754C29.142,57.324,41.554,65,56.667,65  c15.109,0,27.521-7.676,31.738-18.516C86.042,39.115,81.175,32.871,74.817,28.73z M36.666,54.168c-1.38,0-2.5-1.121-2.5-2.5  c0-1.381,1.12-2.501,2.5-2.501s2.5,1.12,2.5,2.501C39.166,53.047,38.046,54.168,36.666,54.168z M46.666,58.334  c-1.38,0-2.5-1.119-2.5-2.5s1.12-2.5,2.5-2.5s2.501,1.119,2.501,2.5S48.046,58.334,46.666,58.334z M56.667,60  c-1.381,0-2.5-1.119-2.5-2.5c0-1.379,1.119-2.5,2.5-2.5c1.379,0,2.5,1.121,2.5,2.5C59.167,58.881,58.046,60,56.667,60z   M66.667,58.334c-1.381,0-2.5-1.119-2.5-2.5s1.119-2.5,2.5-2.5c1.379,0,2.5,1.119,2.5,2.5S68.046,58.334,66.667,58.334z   M76.667,54.168c-1.381,0-2.5-1.121-2.5-2.5c0-1.381,1.119-2.501,2.5-2.501c1.379,0,2.5,1.12,2.5,2.501  C79.167,53.047,78.046,54.168,76.667,54.168z"/><path d="M89.999,13.083L88.718,10l-12.314,5.102c-1.693,0.699-4.141,2.34-5.439,3.636l-20.137,20.13  c-2.049-0.84-3.49-2.018-3.973-3.096l10.711-10.709C57.263,25.049,56.972,25,56.667,25c-8.133,0-15.001,4.58-15.001,10  s6.868,10,15.001,10c8.131,0,15-4.58,15-10c0-2.389-1.357-4.6-3.553-6.341l8.047-8.04L89.999,13.083z"/></svg>